ffmpeg started on 2016-12-03 at 12:32:24
Report written to "Output/x264/results/ffmpeg/old_town_cross_2160p50placebo10000k.log"
Command line:
Tools/ffmpeg/ffmpeg -benchmark -y -i Input/y4m/old_town_cross_2160p50.y4m -c:v libx264 -preset placebo -b:v 10000k -an Output/x264/encoded/old_town_cross_2160p50placebo10000k.mkv
ffmpeg version N-82227-gdb23fde Copyright (c) 2000-2016 the FFmpeg developers
  built with gcc 5.4.0 (Ubuntu 5.4.0-6ubuntu1~16.04.2) 20160609
  configuration: --prefix=/home/jaroslav/ffmpeg_build --pkg-config-flags=--static --extra-cflags=-I/home/jaroslav/ffmpeg_build/include --extra-ldflags=-L/home/jaroslav/ffmpeg_build/lib --bindir=/home/jaroslav/bin --enable-gpl --enable-libass --enable-libfdk-aac --enable-libfreetype --enable-libmp3lame --enable-libopus --enable-libtheora --enable-libvorbis --enable-libvpx --enable-libx264 --enable-libx265 --enable-nvenc --enable-libmfx --enable-libxvid --enable-libgsm --enable-libopencore-amrnb --enable-version3 --enable-nonfree
  libavutil      55. 35.100 / 55. 35.100
  libavcodec     57. 66.101 / 57. 66.101
  libavformat    57. 57.100 / 57. 57.100
  libavdevice    57.  2.100 / 57.  2.100
  libavfilter     6. 66.100 /  6. 66.100
  libswscale      4.  3.100 /  4.  3.100
  libswresample   2.  4.100 /  2.  4.100
  libpostproc    54.  2.100 / 54.  2.100
Input #0, yuv4mpegpipe, from 'Input/y4m/old_town_cross_2160p50.y4m':
  Duration: 00:00:10.00, start: 0.000000, bitrate: 4976642 kb/s
    Stream #0:0: Video: rawvideo (I420 / 0x30323449), yuv420p(progressive), 3840x2160, SAR 1:1 DAR 16:9, 50 fps, 50 tbr, 50 tbn, 50 tbc
[libx264 @ 0x456d120] using SAR=1/1
[libx264 @ 0x456d120] DPB size (16 frames, 518400 mbs) > level limit (5 frames, 184320 mbs)
[libx264 @ 0x456d120] using cpu capabilities: MMX2 SSE2Fast SSSE3 SSE4.2 AVX FMA3 AVX2 LZCNT BMI2
[libx264 @ 0x456d120] profile High, level 5.2
[libx264 @ 0x456d120] 264 - core 148 - H.264/MPEG-4 AVC codec - Copyleft 2003-2016 - http://www.videolan.org/x264.html - options: cabac=1 ref=16 deblock=1:0:0 analyse=0x3:0x133 me=tesa subme=11 psy=1 psy_rd=1.00:0.00 mixed_ref=1 me_range=24 chroma_me=1 trellis=2 8x8dct=1 cqm=0 deadzone=21,11 fast_pskip=0 chroma_qp_offset=-2 threads=6 lookahead_threads=1 sliced_threads=0 nr=0 decimate=1 interlaced=0 bluray_compat=0 constrained_intra=0 bframes=16 b_pyramid=2 b_adapt=2 b_bias=0 direct=3 weightb=1 open_gop=0 weightp=2 keyint=250 keyint_min=25 scenecut=40 intra_refresh=0 rc_lookahead=60 rc=abr mbtree=1 bitrate=10000 ratetol=1.0 qcomp=0.60 qpmin=0 qpmax=69 qpstep=4 ip_ratio=1.40 aq=1:1.00
Output #0, matroska, to 'Output/x264/encoded/old_town_cross_2160p50placebo10000k.mkv':
  Metadata:
    encoder         : Lavf57.57.100
    Stream #0:0: Video: h264 (libx264) (H264 / 0x34363248), yuv420p, 3840x2160 [SAR 1:1 DAR 16:9], q=-1--1, 10000 kb/s, 50 fps, 1k tbn, 50 tbc
    Metadata:
      encoder         : Lavc57.66.101 libx264
    Side data:
      cpb: bitrate max/min/avg: 0/0/10000000 buffer size: 0 vbv_delay: -1
Stream mapping:
  Stream #0:0 -> #0:0 (rawvideo (native) -> h264 (libx264))
Press [q] to stop, [?] for help
frame=   58 fps=0.0 q=0.0 size=       0kB time=00:00:00.00 bitrate=N/A speed=   0x    frame=   84 fps=3.3 q=0.0 size=       0kB time=00:00:00.00 bitrate=N/A speed=   0x    frame=   89 fps=3.2 q=34.0 size=       1kB time=-00:00:00.01 bitrate=N/A speed=N/A    frame=   90 fps=2.5 q=34.0 size=       1kB time=00:00:00.00 bitrate=5888.0kbits/s speed=2.76e-05x    frame=   91 fps=2.3 q=34.0 size=       1kB time=00:00:00.02 bitrate= 280.4kbits/s speed=0.000525x    frame=   92 fps=2.2 q=34.0 size=       1kB time=00:00:00.04 bitrate= 143.6kbits/s speed=0.000991x    frame=   95 fps=2.2 q=34.0 size=       1kB time=00:00:00.10 bitrate=  58.3kbits/s speed=0.00237x    frame=   96 fps=1.9 q=34.0 size=       1kB time=00:00:00.12 bitrate=  48.7kbits/s speed=0.00242x    frame=   97 fps=1.8 q=34.0 size=       1kB time=00:00:00.14 bitrate=  41.8kbits/s speed=0.00269x    frame=   98 fps=1.8 q=42.0 size=       1kB time=00:00:00.16 bitrate=  36.6kbits/s speed=0.00302x    frame=  101 fps=1.9 q=35.0 size=       1kB time=00:00:00.22 bitrate=  26.6kbits/s speed=0.00409x    frame=  102 fps=1.7 q=36.0 size=       1kB time=00:00:00.24 bitrate=  24.4kbits/s speed=0.00405x    frame=  103 fps=1.7 q=37.0 size=       1kB time=00:00:00.26 bitrate=  22.6kbits/s speed=0.00427x    frame=  106 fps=1.6 q=40.0 size=       1kB time=00:00:00.32 bitrate=  18.3kbits/s speed=0.00476x    frame=  108 fps=1.5 q=44.0 size=       1kB time=00:00:00.36 bitrate=  16.3kbits/s speed=0.00505x    frame=  109 fps=1.5 q=43.0 size=       1kB time=00:00:00.38 bitrate=  15.5kbits/s speed=0.00525x    frame=  112 fps=1.5 q=42.0 size=       1kB time=00:00:00.44 bitrate=  13.4kbits/s speed=0.00589x    frame=  114 fps=1.5 q=42.0 size=       1kB time=00:00:00.48 bitrate=  12.2kbits/s speed=0.00613x    frame=  115 fps=1.5 q=43.0 size=       1kB time=00:00:00.50 bitrate=  11.8kbits/s speed=0.00632x    frame=  116 fps=1.4 q=43.0 size=       1kB time=00:00:00.52 bitrate=  11.3kbits/s speed=0.00646x    frame=  118 fps=1.4 q=43.0 size=       1kB time=00:00:00.56 bitrate=  10.5kbits/s speed=0.00687x    frame=  120 fps=1.4 q=43.0 size=       1kB time=00:00:00.60 bitrate=   9.8kbits/s speed=0.00694x    frame=  121 fps=1.4 q=44.0 size=       1kB time=00:00:00.62 bitrate=   9.5kbits/s speed=0.00704x    frame=  122 fps=1.4 q=40.0 size=       1kB time=00:00:00.64 bitrate=   9.2kbits/s speed=0.00718x    frame=  124 fps=1.4 q=43.0 size=       1kB time=00:00:00.68 bitrate=   8.6kbits/s speed=0.00757x    frame=  126 fps=1.3 q=43.0 size=       1kB time=00:00:00.72 bitrate=   8.2kbits/s speed=0.00769x    frame=  127 fps=1.3 q=42.0 size=       1kB time=00:00:00.74 bitrate=   7.9kbits/s speed=0.00784x    frame=  128 fps=1.3 q=42.0 size=       1kB time=00:00:00.76 bitrate=   7.7kbits/s speed=0.00753x    frame=  129 fps=1.3 q=42.0 size=       1kB time=00:00:00.78 bitrate=   7.5kbits/s speed=0.00765x    frame=  130 fps=1.3 q=41.0 size=       1kB time=00:00:00.80 bitrate=   7.4kbits/s speed=0.00777x    frame=  134 fps=1.2 q=39.0 size=       1kB time=00:00:00.88 bitrate=   6.7kbits/s speed=0.00806x    frame=  135 fps=1.2 q=39.0 size=       1kB time=00:00:00.90 bitrate=   6.5kbits/s speed=0.00811x    frame=  136 fps=1.2 q=40.0 size=       1kB time=00:00:00.92 bitrate=   6.4kbits/s speed=0.00821x    frame=  139 fps=1.2 q=40.0 size=       1kB time=00:00:00.98 bitrate=   6.0kbits/s speed=0.00868x    frame=  140 fps=1.1 q=39.0 size=       1kB time=00:00:01.00 bitrate=   5.9kbits/s speed=0.00791x    frame=  141 fps=1.1 q=39.0 size=       1kB time=00:00:01.02 bitrate=   5.8kbits/s speed=0.00801x    frame=  142 fps=1.1 q=39.0 size=       1kB time=00:00:01.04 bitrate=   5.7kbits/s speed=0.00811x    frame=  146 fps=1.1 q=39.0 size=       1kB time=00:00:01.12 bitrate=   5.3kbits/s speed=0.00825x    frame=  147 fps=1.1 q=38.0 size=       1kB time=00:00:01.14 bitrate=   5.2kbits/s speed=0.00817x    frame=  149 fps=1.1 q=38.0 size=       1kB time=00:00:01.18 bitrate=   5.0kbits/s speed=0.00838x    frame=  150 fps=1.0 q=38.0 size=       1kB time=00:00:01.20 bitrate=   4.9kbits/s speed=0.00784x    frame=  151 fps=1.0 q=38.0 size=       1kB time=00:00:01.22 bitrate=   4.8kbits/s speed=0.00792x    frame=  152 fps=1.0 q=38.0 size=       1kB time=00:00:01.24 bitrate=   4.7kbits/s speed=0.00798x    frame=  156 fps=0.9 q=37.0 size=       1kB time=00:00:01.32 bitrate=   4.5kbits/s speed=0.00796x    frame=  157 fps=0.9 q=37.0 size=       1kB time=00:00:01.34 bitrate=   4.4kbits/s speed=0.00804x    frame=  158 fps=0.9 q=37.0 size=       1kB time=00:00:01.36 bitrate=   4.3kbits/s speed=0.00799x    frame=  159 fps=0.9 q=37.0 size=       1kB time=00:00:01.38 bitrate=   4.3kbits/s speed=0.00802x    frame=  160 fps=0.9 q=37.0 size=       1kB time=00:00:01.40 bitrate=   4.2kbits/s speed=0.00763x    frame=  161 fps=0.9 q=37.0 size=       1kB time=00:00:01.42 bitrate=   4.1kbits/s speed=0.00768x    frame=  162 fps=0.9 q=37.0 size=       1kB time=00:00:01.44 bitrate=   4.1kbits/s speed=0.00773x    frame=  164 fps=0.9 q=36.0 size=       1kB time=00:00:01.48 bitrate=   4.0kbits/s speed=0.00785x    frame=  165 fps=0.9 q=36.0 size=       1kB time=00:00:01.50 bitrate=   3.9kbits/s speed=0.00785x    frame=  166 fps=0.8 q=37.0 size=       1kB time=00:00:01.52 bitrate=   3.9kbits/s speed=0.00755x    frame=  167 fps=0.8 q=37.0 size=       1kB time=00:00:01.54 bitrate=   3.8kbits/s speed=0.0076x    frame=  168 fps=0.8 q=37.0 size=       1kB time=00:00:01.56 bitrate=   3.8kbits/s speed=0.00756x    frame=  170 fps=0.8 q=36.0 size=       1kB time=00:00:01.60 bitrate=   3.7kbits/s speed=0.00725x    frame=  171 fps=0.8 q=36.0 size=       1kB time=00:00:01.62 bitrate=   3.6kbits/s speed=0.00729x    frame=  172 fps=0.8 q=36.0 size=       1kB time=00:00:01.64 bitrate=   3.6kbits/s speed=0.00732x    frame=  174 fps=0.8 q=36.0 size=       1kB time=00:00:01.68 bitrate=   3.5kbits/s speed=0.00744x    frame=  176 fps=0.7 q=36.0 size=       1kB time=00:00:01.72 bitrate=   3.4kbits/s speed=0.00723x    frame=  177 fps=0.7 q=36.0 size=       1kB time=00:00:01.74 bitrate=   3.4kbits/s speed=0.00724x    frame=  178 fps=0.7 q=36.0 size=       1kB time=00:00:01.76 bitrate=   3.3kbits/s speed=0.00725x    frame=  179 fps=0.7 q=36.0 size=       1kB time=00:00:01.78 bitrate=   3.3kbits/s speed=0.00727x    frame=  180 fps=0.7 q=36.0 size=       1kB time=00:00:01.80 bitrate=   3.3kbits/s speed=0.00728x    frame=  181 fps=0.7 q=36.0 size=       1kB time=00:00:01.82 bitrate=   3.2kbits/s speed=0.00694x    frame=  182 fps=0.7 q=36.0 size=       1kB time=00:00:01.84 bitrate=   3.2kbits/s speed=0.00697x    frame=  183 fps=0.7 q=36.0 size=       1kB time=00:00:01.86 bitrate=   3.2kbits/s speed=0.00702x    frame=  184 fps=0.7 q=36.0 size=       1kB time=00:00:01.88 bitrate=   3.1kbits/s speed=0.00708x    frame=  187 fps=0.7 q=35.0 size=       1kB time=00:00:01.94 bitrate=   3.0kbits/s speed=0.00693x    frame=  188 fps=0.7 q=36.0 size=       1kB time=00:00:01.96 bitrate=   3.0kbits/s speed=0.00694x    frame=  189 fps=0.7 q=36.0 size=       1kB time=00:00:01.98 bitrate=   3.0kbits/s speed=0.00694x    frame=  190 fps=0.7 q=35.0 size=       1kB time=00:00:02.00 bitrate=   2.9kbits/s speed=0.0069x    frame=  192 fps=0.6 q=35.0 size=       1kB time=00:00:02.04 bitrate=   2.9kbits/s speed=0.00673x    frame=  193 fps=0.6 q=35.0 size=       1kB time=00:00:02.06 bitrate=   2.9kbits/s speed=0.00676x    frame=  194 fps=0.6 q=35.0 size=       1kB time=00:00:02.08 bitrate=   2.8kbits/s speed=0.0068x    frame=  196 fps=0.6 q=35.0 size=       1kB time=00:00:02.12 bitrate=   2.8kbits/s speed=0.0069x    frame=  198 fps=0.6 q=35.0 size=       1kB time=00:00:02.16 bitrate=   2.7kbits/s speed=0.0067x    frame=  199 fps=0.6 q=35.0 size=       1kB time=00:00:02.18 bitrate=   2.7kbits/s speed=0.00669x    frame=  200 fps=0.6 q=35.0 size=       1kB time=00:00:02.20 bitrate=   2.7kbits/s speed=0.00673x    frame=  202 fps=0.6 q=35.0 size=       1kB time=00:00:02.24 bitrate=   2.6kbits/s speed=0.00682x    frame=  203 fps=0.6 q=35.0 size=       1kB time=00:00:02.26 bitrate=   2.6kbits/s speed=0.00654x    frame=  204 fps=0.6 q=35.0 size=       1kB time=00:00:02.28 bitrate=   2.6kbits/s speed=0.00657x    frame=  205 fps=0.6 q=35.0 size=       1kB time=00:00:02.30 bitrate=   2.6kbits/s speed=0.00661x    frame=  209 fps=0.6 q=35.0 size=       1kB time=00:00:02.38 bitrate=   2.5kbits/s speed=0.00657x    frame=  210 fps=0.6 q=35.0 size=       1kB time=00:00:02.40 bitrate=   2.5kbits/s speed=0.00635x    frame=  211 fps=0.6 q=35.0 size=       1kB time=00:00:02.42 bitrate=   2.4kbits/s speed=0.00638x    frame=  212 fps=0.6 q=35.0 size=       1kB time=00:00:02.44 bitrate=   2.4kbits/s speed=0.00641x    frame=  214 fps=0.6 q=35.0 size=       1kB time=00:00:02.48 bitrate=   2.4kbits/s speed=0.00651x    frame=  216 fps=0.5 q=35.0 size=       1kB time=00:00:02.52 bitrate=   2.3kbits/s speed=0.00634x    frame=  217 fps=0.5 q=35.0 size=       1kB time=00:00:02.54 bitrate=   2.3kbits/s speed=0.00636x    frame=  218 fps=0.5 q=35.0 size=       1kB time=00:00:02.56 bitrate=   2.3kbits/s speed=0.00636x    frame=  220 fps=0.5 q=35.0 size=       1kB time=00:00:02.60 bitrate=   2.3kbits/s speed=0.00638x    frame=  221 fps=0.5 q=35.0 size=       1kB time=00:00:02.62 bitrate=   2.2kbits/s speed=0.00626x    frame=  222 fps=0.5 q=35.0 size=       1kB time=00:00:02.64 bitrate=   2.2kbits/s speed=0.00624x    frame=  223 fps=0.5 q=35.0 size=       1kB time=00:00:02.66 bitrate=   2.2kbits/s speed=0.00626x    frame=  226 fps=0.5 q=34.0 size=       1kB time=00:00:02.72 bitrate=   2.2kbits/s speed=0.00638x    frame=  227 fps=0.5 q=35.0 size=       1kB time=00:00:02.74 bitrate=   2.1kbits/s speed=0.00624x    frame=  228 fps=0.5 q=35.0 size=       1kB time=00:00:02.76 bitrate=   2.1kbits/s speed=0.00621x    frame=  229 fps=0.5 q=35.0 size=       1kB time=00:00:02.78 bitrate=   2.1kbits/s speed=0.00621x    frame=  231 fps=0.5 q=35.0 size=       1kB time=00:00:02.82 bitrate=   2.1kbits/s speed=0.00628x    frame=  232 fps=0.5 q=34.0 size=       1kB time=00:00:02.84 bitrate=   2.1kbits/s speed=0.00613x    frame=  233 fps=0.5 q=34.0 size=       1kB time=00:00:02.86 bitrate=   2.1kbits/s speed=0.00615x    frame=  234 fps=0.5 q=34.0 size=       1kB time=00:00:02.88 bitrate=   2.0kbits/s speed=0.00617x    frame=  235 fps=0.5 q=34.0 size=       1kB time=00:00:02.90 bitrate=   2.0kbits/s speed=0.00616x    frame=  237 fps=0.5 q=34.0 size=       1kB time=00:00:02.94 bitrate=   2.0kbits/s speed=0.00623x    frame=  238 fps=0.5 q=34.0 size=       1kB time=00:00:02.96 bitrate=   2.0kbits/s speed=0.00611x    frame=  239 fps=0.5 q=34.0 size=       1kB time=00:00:02.98 bitrate=   2.0kbits/s speed=0.00614x    frame=  240 fps=0.5 q=34.0 size=       1kB time=00:00:03.00 bitrate=   2.0kbits/s speed=0.006x    frame=  241 fps=0.5 q=34.0 size=       1kB time=00:00:03.02 bitrate=   1.9kbits/s speed=0.00603x    frame=  242 fps=0.5 q=34.0 size=       1kB time=00:00:03.04 bitrate=   1.9kbits/s speed=0.00605x    frame=  246 fps=0.5 q=34.0 size=       1kB time=00:00:03.12 bitrate=   1.9kbits/s speed=0.006x    frame=  247 fps=0.5 q=34.0 size=       1kB time=00:00:03.14 bitrate=   1.9kbits/s speed=0.00601x    frame=  248 fps=0.5 q=34.0 size=       1kB time=00:00:03.16 bitrate=   1.9kbits/s speed=0.00603x    frame=  251 fps=0.5 q=34.0 size=       1kB time=00:00:03.22 bitrate=   1.8kbits/s speed=0.00596x    frame=  252 fps=0.5 q=34.0 size=       1kB time=00:00:03.24 bitrate=   1.8kbits/s speed=0.00595x    frame=  253 fps=0.5 q=34.0 size=       1kB time=00:00:03.26 bitrate=   1.8kbits/s speed=0.00595x    frame=  257 fps=0.5 q=34.0 size=       1kB time=00:00:03.34 bitrate=   1.8kbits/s speed=0.00599x    frame=  258 fps=0.5 q=34.0 size=       1kB time=00:00:03.36 bitrate=   1.8kbits/s speed=0.00597x    frame=  259 fps=0.4 q=34.0 size=       1kB time=00:00:03.38 bitrate=   1.7kbits/s speed=0.00586x    frame=  260 fps=0.4 q=34.0 size=       1kB time=00:00:03.40 bitrate=   1.7kbits/s speed=0.00588x    frame=  261 fps=0.5 q=34.0 size=       1kB time=00:00:03.42 bitrate=   1.7kbits/s speed=0.0059x    frame=  265 fps=0.4 q=34.0 size=       1kB time=00:00:03.50 bitrate=   1.7kbits/s speed=0.00583x    frame=  266 fps=0.4 q=34.0 size=       1kB time=00:00:03.52 bitrate=   1.7kbits/s speed=0.00584x    frame=  267 fps=0.4 q=34.0 size=       1kB time=00:00:03.54 bitrate=   1.7kbits/s speed=0.00586x    frame=  270 fps=0.4 q=34.0 size=       1kB time=00:00:03.60 bitrate=   1.6kbits/s speed=0.00585x    frame=  271 fps=0.4 q=34.0 size=       1kB time=00:00:03.62 bitrate=   1.6kbits/s speed=0.00581x    frame=  272 fps=0.4 q=34.0 size=       1kB time=00:00:03.64 bitrate=   1.6kbits/s speed=0.00582x    frame=  276 fps=0.4 q=34.0 size=       1kB time=00:00:03.72 bitrate=   1.6kbits/s speed=0.00579x    frame=  277 fps=0.4 q=34.0 size=       1kB time=00:00:03.74 bitrate=   1.6kbits/s speed=0.00578x    frame=  278 fps=0.4 q=34.0 size=       1kB time=00:00:03.76 bitrate=   1.6kbits/s speed=0.00578x    frame=  282 fps=0.4 q=34.0 size=       1kB time=00:00:03.84 bitrate=   1.5kbits/s speed=0.00579x    frame=  283 fps=0.4 q=34.0 size=       1kB time=00:00:03.86 bitrate=   1.5kbits/s speed=0.00578x    frame=  284 fps=0.4 q=34.0 size=       1kB time=00:00:03.88 bitrate=   1.5kbits/s speed=0.00571x    frame=  285 fps=0.4 q=34.0 size=       1kB time=00:00:03.90 bitrate=   1.5kbits/s speed=0.00573x    frame=  286 fps=0.4 q=34.0 size=       1kB time=00:00:03.92 bitrate=   1.5kbits/s speed=0.00574x    frame=  289 fps=0.4 q=34.0 size=       1kB time=00:00:03.98 bitrate=   1.5kbits/s speed=0.0058x    frame=  290 fps=0.4 q=34.0 size=       1kB time=00:00:04.00 bitrate=   1.5kbits/s speed=0.00569x    frame=  291 fps=0.4 q=34.0 size=       1kB time=00:00:04.02 bitrate=   1.5kbits/s speed=0.00571x    frame=  292 fps=0.4 q=34.0 size=       1kB time=00:00:04.04 bitrate=   1.5kbits/s speed=0.00573x    frame=  293 fps=0.4 q=34.0 size=       1kB time=00:00:04.06 bitrate=   1.4kbits/s speed=0.00574x    frame=  295 fps=0.4 q=34.0 size=       1kB time=00:00:04.10 bitrate=   1.4kbits/s speed=0.00578x    frame=  296 fps=0.4 q=34.0 size=       1kB time=00:00:04.12 bitrate=   1.4kbits/s speed=0.00569x    frame=  297 fps=0.4 q=34.0 size=       1kB time=00:00:04.14 bitrate=   1.4kbits/s speed=0.00562x    frame=  298 fps=0.4 q=34.0 size=       1kB time=00:00:04.16 bitrate=   1.4kbits/s speed=0.00564x    frame=  299 fps=0.4 q=34.0 size=       1kB time=00:00:04.18 bitrate=   1.4kbits/s speed=0.00566x    frame=  302 fps=0.4 q=34.0 size=       1kB time=00:00:04.24 bitrate=   1.4kbits/s speed=0.0057x    frame=  303 fps=0.4 q=34.0 size=       1kB time=00:00:04.26 bitrate=   1.4kbits/s speed=0.00562x    frame=  304 fps=0.4 q=34.0 size=       1kB time=00:00:04.28 bitrate=   1.4kbits/s speed=0.00563x    frame=  305 fps=0.4 q=34.0 size=       1kB time=00:00:04.30 bitrate=   1.4kbits/s speed=0.00564x    frame=  307 fps=0.4 q=34.0 size=       1kB time=00:00:04.34 bitrate=   1.4kbits/s speed=0.00561x    frame=  308 fps=0.4 q=34.0 size=       1kB time=00:00:04.36 bitrate=   1.4kbits/s speed=0.00562x    frame=  309 fps=0.4 q=34.0 size=       1kB time=00:00:04.38 bitrate=   1.3kbits/s speed=0.0056x    frame=  310 fps=0.4 q=34.0 size=       1kB time=00:00:04.40 bitrate=   1.3kbits/s speed=0.00561x    frame=  311 fps=0.4 q=34.0 size=       1kB time=00:00:04.42 bitrate=   1.3kbits/s speed=0.00563x    frame=  312 fps=0.4 q=34.0 size=       1kB time=00:00:04.44 bitrate=   1.3kbits/s speed=0.00565x    frame=  313 fps=0.4 q=34.0 size=       1kB time=00:00:04.46 bitrate=   1.3kbits/s speed=0.00561x    frame=  315 fps=0.4 q=34.0 size=       1kB time=00:00:04.50 bitrate=   1.3kbits/s speed=0.0056x    frame=  316 fps=0.4 q=34.0 size=       1kB time=00:00:04.52 bitrate=   1.3kbits/s speed=0.0056x    frame=  318 fps=0.4 q=34.0 size=       1kB time=00:00:04.56 bitrate=   1.3kbits/s speed=0.00563x    frame=  319 fps=0.4 q=34.0 size=    5234kB time=00:00:04.58 bitrate=9360.5kbits/s speed=0.00551x    frame=  320 fps=0.4 q=34.0 size=    5234kB time=00:00:04.60 bitrate=9319.8kbits/s speed=0.00553x    frame=  321 fps=0.4 q=34.0 size=    5234kB time=00:00:04.62 bitrate=9279.5kbits/s speed=0.00554x    frame=  323 fps=0.4 q=34.0 size=    5234kB time=00:00:04.66 bitrate=9199.9kbits/s speed=0.00559x    frame=  325 fps=0.4 q=34.0 size=    5234kB time=00:00:04.70 bitrate=9121.6kbits/s speed=0.00552x    frame=  326 fps=0.4 q=34.0 size=    5234kB time=00:00:04.72 bitrate=9082.9kbits/s speed=0.00553x    frame=  327 fps=0.4 q=34.0 size=    5234kB time=00:00:04.74 bitrate=9044.6kbits/s speed=0.00554x    frame=  328 fps=0.4 q=34.0 size=    5234kB time=00:00:04.76 bitrate=9006.6kbits/s speed=0.00554x    frame=  329 fps=0.4 q=34.0 size=    5234kB time=00:00:04.78 bitrate=8969.0kbits/s speed=0.00549x    frame=  330 fps=0.4 q=34.0 size=    5234kB time=00:00:04.80 bitrate=8931.6kbits/s speed=0.00551x    frame=  331 fps=0.4 q=34.0 size=    5234kB time=00:00:04.82 bitrate=8894.5kbits/s speed=0.00552x    frame=  332 fps=0.4 q=31.0 size=    5234kB time=00:00:04.84 bitrate=8857.8kbits/s speed=0.00552x    frame=  333 fps=0.4 q=35.0 size=    5234kB time=00:00:04.86 bitrate=8821.3kbits/s speed=0.00553x    frame=  335 fps=0.4 q=35.0 size=    5234kB time=00:00:04.90 bitrate=8749.3kbits/s speed=0.00552x    frame=  336 fps=0.4 q=35.0 size=    5234kB time=00:00:04.92 bitrate=8713.8kbits/s speed=0.00553x    frame=  341 fps=0.4 q=35.0 size=    5567kB time=00:00:05.02 bitrate=9083.4kbits/s speed=0.00559x    frame=  342 fps=0.4 q=35.0 size=    5567kB time=00:00:05.04 bitrate=9047.3kbits/s speed=0.0056x    frame=  347 fps=0.4 q=35.0 size=    5567kB time=00:00:05.14 bitrate=8871.3kbits/s speed=0.00567x    frame=  348 fps=0.4 q=35.0 size=    5567kB time=00:00:05.16 bitrate=8837.0kbits/s speed=0.00569x    frame=  349 fps=0.4 q=35.0 size=    5567kB time=00:00:05.18 bitrate=8802.8kbits/s speed=0.00568x    frame=  350 fps=0.4 q=35.0 size=    5567kB time=00:00:05.20 bitrate=8769.0kbits/s speed=0.0057x    frame=  351 fps=0.4 q=35.0 size=    5567kB time=00:00:05.22 bitrate=8735.4kbits/s speed=0.00571x    frame=  353 fps=0.4 q=35.0 size=    5567kB time=00:00:05.26 bitrate=8669.0kbits/s speed=0.00573x    frame=  354 fps=0.4 q=35.0 size=    5567kB time=00:00:05.28 bitrate=8636.2kbits/s speed=0.00573x    frame=  355 fps=0.4 q=35.0 size=    5567kB time=00:00:05.30 bitrate=8603.6kbits/s speed=0.00574x    frame=  356 fps=0.4 q=35.0 size=    5567kB time=00:00:05.32 bitrate=8571.2kbits/s speed=0.00575x    frame=  357 fps=0.4 q=35.0 size=    5567kB time=00:00:05.34 bitrate=8539.1kbits/s speed=0.00576x    frame=  358 fps=0.4 q=35.0 size=    5567kB time=00:00:05.36 bitrate=8507.3kbits/s speed=0.00578x    frame=  359 fps=0.4 q=35.0 size=    5567kB time=00:00:05.38 bitrate=8475.7kbits/s speed=0.00575x    frame=  360 fps=0.4 q=35.0 size=    5567kB time=00:00:05.40 bitrate=8444.3kbits/s speed=0.00577x    frame=  361 fps=0.4 q=35.0 size=    5567kB time=00:00:05.42 bitrate=8413.1kbits/s speed=0.00578x    frame=  363 fps=0.4 q=35.0 size=    5567kB time=00:00:05.46 bitrate=8351.5kbits/s speed=0.00582x    frame=  365 fps=0.4 q=35.0 size=    5567kB time=00:00:05.50 bitrate=8290.8kbits/s speed=0.0058x    frame=  366 fps=0.4 q=35.0 size=    5567kB time=00:00:05.52 bitrate=8260.7kbits/s speed=0.00582x    frame=  368 fps=0.4 q=35.0 size=    5567kB time=00:00:05.56 bitrate=8201.3kbits/s speed=0.00585x    frame=  369 fps=0.4 q=35.0 size=    5567kB time=00:00:05.58 bitrate=8171.9kbits/s speed=0.00587x    frame=  371 fps=0.4 q=35.0 size=    5567kB time=00:00:05.62 bitrate=8113.8kbits/s speed=0.00584x    frame=  373 fps=0.4 q=35.0 size=    5567kB time=00:00:05.66 bitrate=8056.4kbits/s speed=0.00587x    frame=  374 fps=0.4 q=35.0 size=    5567kB time=00:00:05.68 bitrate=8028.1kbits/s speed=0.00584x    frame=  375 fps=0.4 q=35.0 size=    5567kB time=00:00:05.70 bitrate=7999.9kbits/s speed=0.00585x    frame=  376 fps=0.4 q=35.0 size=    5567kB time=00:00:05.72 bitrate=7972.0kbits/s speed=0.00587x    frame=  380 fps=0.4 q=35.0 size=    5567kB time=00:00:05.80 bitrate=7862.0kbits/s speed=0.00588x    frame=  381 fps=0.4 q=35.0 size=    5567kB time=00:00:05.82 bitrate=7835.0kbits/s speed=0.00589x    frame=  385 fps=0.4 q=35.0 size=    5567kB time=00:00:05.90 bitrate=7728.8kbits/s speed=0.00596x    frame=  386 fps=0.4 q=35.0 size=    5567kB time=00:00:05.92 bitrate=7702.7kbits/s speed=0.0059x    frame=  387 fps=0.4 q=35.0 size=    5567kB time=00:00:05.94 bitrate=7676.7kbits/s speed=0.00592x    frame=  388 fps=0.4 q=35.0 size=    5567kB time=00:00:05.96 bitrate=7651.0kbits/s speed=0.00593x    frame=  389 fps=0.4 q=35.0 size=    5567kB time=00:00:05.98 bitrate=7625.4kbits/s speed=0.0059x    frame=  390 fps=0.4 q=35.0 size=    5567kB time=00:00:06.00 bitrate=7600.0kbits/s speed=0.00591x    frame=  391 fps=0.4 q=35.0 size=    5567kB time=00:00:06.02 bitrate=7574.7kbits/s speed=0.00592x    frame=  393 fps=0.4 q=35.0 size=    5567kB time=00:00:06.06 bitrate=7524.8kbits/s speed=0.00595x    frame=  394 fps=0.4 q=35.0 size=    5567kB time=00:00:06.08 bitrate=7500.0kbits/s speed=0.00597x    frame=  395 fps=0.4 q=35.0 size=    5567kB time=00:00:06.10 bitrate=7475.4kbits/s speed=0.0059x    frame=  396 fps=0.4 q=35.0 size=    5567kB time=00:00:06.12 bitrate=7451.0kbits/s speed=0.00591x    frame=  397 fps=0.4 q=35.0 size=    5567kB time=00:00:06.14 bitrate=7426.7kbits/s speed=0.00593x    frame=  398 fps=0.4 q=35.0 size=    5567kB time=00:00:06.16 bitrate=7402.6kbits/s speed=0.00594x    frame=  399 fps=0.4 q=35.0 size=    5567kB time=00:00:06.18 bitrate=7378.7kbits/s speed=0.00596x    frame=  400 fps=0.4 q=35.0 size=    5567kB time=00:00:06.20 bitrate=7354.9kbits/s speed=0.00597x    frame=  401 fps=0.4 q=35.0 size=    5567kB time=00:00:06.22 bitrate=7331.2kbits/s speed=0.00593x    frame=  402 fps=0.4 q=35.0 size=    5567kB time=00:00:06.24 bitrate=7307.7kbits/s speed=0.00594x    frame=  403 fps=0.4 q=35.0 size=    5567kB time=00:00:06.26 bitrate=7284.4kbits/s speed=0.0059x    frame=  404 fps=0.4 q=35.0 size=    5567kB time=00:00:06.28 bitrate=7261.2kbits/s speed=0.00591x    frame=  405 fps=0.4 q=35.0 size=    5567kB time=00:00:06.30 bitrate=7238.1kbits/s speed=0.00592x    frame=  408 fps=0.4 q=35.0 size=    5567kB time=00:00:06.36 bitrate=7169.9kbits/s speed=0.00597x    frame=  409 fps=0.4 q=35.0 size=    5567kB time=00:00:06.38 bitrate=7147.4kbits/s speed=0.00589x    frame=  411 fps=0.4 q=35.0 size=    5567kB time=00:00:06.42 bitrate=7102.9kbits/s speed=0.00592x    frame=  414 fps=0.4 q=35.0 size=    5567kB time=00:00:06.48 bitrate=7037.1kbits/s speed=0.00596x    frame=  415 fps=0.4 q=35.0 size=    5567kB time=00:00:06.50 bitrate=7015.5kbits/s speed=0.00591x    frame=  416 fps=0.4 q=35.0 size=    5567kB time=00:00:06.52 bitrate=6993.9kbits/s speed=0.00586x    frame=  417 fps=0.4 q=35.0 size=    5567kB time=00:00:06.54 bitrate=6972.6kbits/s speed=0.00587x    frame=  418 fps=0.4 q=35.0 size=    5567kB time=00:00:06.56 bitrate=6951.3kbits/s speed=0.00588x    frame=  421 fps=0.4 q=35.0 size=    5567kB time=00:00:06.62 bitrate=6888.3kbits/s speed=0.00591x    frame=  422 fps=0.4 q=35.0 size=    5567kB time=00:00:06.64 bitrate=6867.6kbits/s speed=0.00586x    frame=  423 fps=0.4 q=35.0 size=    5567kB time=00:00:06.66 bitrate=6847.0kbits/s speed=0.00587x    frame=  424 fps=0.4 q=35.0 size=    5567kB time=00:00:06.68 bitrate=6826.5kbits/s speed=0.00588x    frame=  425 fps=0.4 q=35.0 size=    5567kB time=00:00:06.70 bitrate=6806.1kbits/s speed=0.00589x    frame=  426 fps=0.4 q=35.0 size=    5567kB time=00:00:06.72 bitrate=6785.8kbits/s speed=0.00589x    frame=  427 fps=0.4 q=35.0 size=    5567kB time=00:00:06.74 bitrate=6765.7kbits/s speed=0.00582x    frame=  428 fps=0.4 q=35.0 size=    5567kB time=00:00:06.76 bitrate=6745.7kbits/s speed=0.00583x    frame=  429 fps=0.4 q=35.0 size=    5567kB time=00:00:06.78 bitrate=6725.8kbits/s speed=0.00584x    frame=  433 fps=0.4 q=35.0 size=    5567kB time=00:00:06.86 bitrate=6647.4kbits/s speed=0.00582x    frame=  434 fps=0.4 q=35.0 size=    5567kB time=00:00:06.88 bitrate=6628.0kbits/s speed=0.00583x    frame=  435 fps=0.4 q=35.0 size=    5567kB time=00:00:06.90 bitrate=6608.8kbits/s speed=0.00584x    frame=  436 fps=0.4 q=35.0 size=    5567kB time=00:00:06.92 bitrate=6589.7kbits/s speed=0.00586x    frame=  437 fps=0.4 q=35.0 size=    5567kB time=00:00:06.94 bitrate=6570.7kbits/s speed=0.00586x    frame=  438 fps=0.4 q=35.0 size=    5567kB time=00:00:06.96 bitrate=6551.9kbits/s speed=0.00579x    frame=  439 fps=0.4 q=35.0 size=    5567kB time=00:00:06.98 bitrate=6533.1kbits/s speed=0.0058x    frame=  440 fps=0.4 q=35.0 size=    5567kB time=00:00:07.00 bitrate=6514.4kbits/s speed=0.00581x    frame=  444 fps=0.4 q=34.0 size=    5567kB time=00:00:07.08 bitrate=6440.8kbits/s speed=0.0058x    frame=  445 fps=0.4 q=34.0 size=    5567kB time=00:00:07.10 bitrate=6422.7kbits/s speed=0.00581x    frame=  446 fps=0.4 q=34.0 size=    5567kB time=00:00:07.12 bitrate=6404.7kbits/s speed=0.00581x    frame=  448 fps=0.4 q=34.0 size=    5567kB time=00:00:07.16 bitrate=6368.9kbits/s speed=0.00577x    frame=  449 fps=0.4 q=34.0 size=    5567kB time=00:00:07.18 bitrate=6351.1kbits/s speed=0.00578x    frame=  450 fps=0.4 q=34.0 size=    5567kB time=00:00:07.20 bitrate=6333.5kbits/s speed=0.00579x    frame=  452 fps=0.4 q=34.0 size=    5567kB time=00:00:07.24 bitrate=6298.5kbits/s speed=0.00581x    frame=  453 fps=0.4 q=34.0 size=    5567kB time=00:00:07.26 bitrate=6281.2kbits/s speed=0.00582x    frame=  454 fps=0.4 q=34.0 size=    5567kB time=00:00:07.28 bitrate=6263.9kbits/s speed=0.00578x    frame=  455 fps=0.4 q=34.0 size=    5567kB time=00:00:07.30 bitrate=6246.8kbits/s speed=0.00578x    frame=  457 fps=0.4 q=34.0 size=    5567kB time=00:00:07.34 bitrate=6212.7kbits/s speed=0.0058x    frame=  458 fps=0.4 q=34.0 size=    5567kB time=00:00:07.36 bitrate=6195.8kbits/s speed=0.00573x    frame=  459 fps=0.4 q=34.0 size=    5567kB time=00:00:07.38 bitrate=6179.0kbits/s speed=0.00574x    frame=  460 fps=0.4 q=34.0 size=    5567kB time=00:00:07.40 bitrate=6162.3kbits/s speed=0.00575x    frame=  464 fps=0.4 q=34.0 size=    5567kB time=00:00:07.48 bitrate=6096.4kbits/s speed=0.00574x    frame=  465 fps=0.4 q=34.0 size=    5567kB time=00:00:07.50 bitrate=6080.2kbits/s speed=0.00575x    frame=  466 fps=0.4 q=34.0 size=    5567kB time=00:00:07.52 bitrate=6064.0kbits/s speed=0.00575x    frame=  468 fps=0.4 q=34.0 size=    5567kB time=00:00:07.56 bitrate=6031.9kbits/s speed=0.00572x    frame=  469 fps=0.4 q=34.0 size=    5567kB time=00:00:07.58 bitrate=6016.0kbits/s speed=0.00573x    frame=  470 fps=0.4 q=34.0 size=    5567kB time=00:00:07.60 bitrate=6000.2kbits/s speed=0.00574x    frame=  472 fps=0.4 q=34.0 size=    5567kB time=00:00:07.64 bitrate=5968.8kbits/s speed=0.00576x    frame=  474 fps=0.4 q=34.0 size=    5567kB time=00:00:07.68 bitrate=5937.7kbits/s speed=0.00571x    frame=  476 fps=0.4 q=34.0 size=    5567kB time=00:00:07.72 bitrate=5906.9kbits/s speed=0.00573x    frame=  478 fps=0.4 q=34.0 size=    5567kB time=00:00:07.76 bitrate=5876.5kbits/s speed=0.00575x    frame=  480 fps=0.3 q=34.0 size=    5567kB time=00:00:07.80 bitrate=5846.4kbits/s speed=0.00568x    frame=  481 fps=0.3 q=34.0 size=    5567kB time=00:00:07.82 bitrate=5831.4kbits/s speed=0.00569x    frame=  482 fps=0.4 q=34.0 size=    5567kB time=00:00:07.84 bitrate=5816.5kbits/s speed=0.0057x    frame=  486 fps=0.3 q=34.0 size=    5567kB time=00:00:07.92 bitrate=5757.8kbits/s speed=0.00567x    frame=  487 fps=0.3 q=34.0 size=    5567kB time=00:00:07.94 bitrate=5743.3kbits/s speed=0.00568x    frame=  492 fps=0.3 q=34.0 size=    5567kB time=00:00:08.04 bitrate=5671.9kbits/s speed=0.00568x    frame=  493 fps=0.3 q=34.0 size=    5567kB time=00:00:08.06 bitrate=5657.8kbits/s speed=0.00568x    frame=  495 fps=0.3 q=34.0 size=    5567kB time=00:00:08.10 bitrate=5629.9kbits/s speed=0.00567x    frame=  496 fps=0.3 q=34.0 size=    5567kB time=00:00:08.12 bitrate=5616.0kbits/s speed=0.00567x    frame=  497 fps=0.3 q=34.0 size=    5567kB time=00:00:08.14 bitrate=5602.2kbits/s speed=0.00568x    frame=  499 fps=0.3 q=34.0 size=    5567kB time=00:00:08.18 bitrate=5574.8kbits/s speed=0.0057x    frame=  500 fps=0.3 q=34.0 size=    5567kB time=00:00:08.20 bitrate=5561.2kbits/s speed=0.00571x    frame=  500 fps=0.3 q=34.0 size=    5567kB time=00:00:08.20 bitrate=5561.2kbits/s speed=0.00564x    frame=  500 fps=0.3 q=-1.0 Lsize=   12049kB time=00:00:09.94 bitrate=9929.2kbits/s speed=0.00558x    
video:12045kB audio:0kB subtitle:0kB other streams:0kB global headers:0kB muxing overhead: 0.037256%
bench: utime=6946.248s
bench: maxrss=6563884kB
[libx264 @ 0x456d120] frame I:3     Avg QP:30.16  size:585016
[libx264 @ 0x456d120] frame P:45    Avg QP:33.75  size: 84349
[libx264 @ 0x456d120] frame B:452   Avg QP:36.78  size: 15005
[libx264 @ 0x456d120] consecutive B-frames:  0.6%  0.0%  0.0%  0.0%  0.0%  0.0%  1.4%  3.2%  7.2% 30.0% 19.8%  9.6%  5.2% 14.0%  9.0%  0.0%  0.0%
[libx264 @ 0x456d120] mb I  I16..4: 16.2% 77.8%  6.0%
[libx264 @ 0x456d120] mb P  I16..4:  0.0%  0.3%  0.0%  P16..4: 43.5% 26.6%  5.3%  1.1%  0.0%    skip:23.1%
[libx264 @ 0x456d120] mb B  I16..4:  0.0%  0.0%  0.0%  B16..8: 42.6%  3.1%  0.0%  direct: 0.1%  skip:54.2%  L0:52.8% L1:47.1% BI: 0.1%
[libx264 @ 0x456d120] final ratefactor: 26.55
[libx264 @ 0x456d120] 8x8 transform intra:78.2% inter:65.7%
[libx264 @ 0x456d120] direct mvs  spatial:98.7% temporal:1.3%
[libx264 @ 0x456d120] coded y,uvDC,uvAC intra: 92.5% 74.2% 55.4% inter: 1.4% 1.0% 0.0%
[libx264 @ 0x456d120] i16 v,h,dc,p: 18% 34% 15% 34%
[libx264 @ 0x456d120] i8 v,h,dc,ddl,ddr,vr,hd,vl,hu:  4%  5%  1% 15% 20% 15% 19%  9% 11%
[libx264 @ 0x456d120] i4 v,h,dc,ddl,ddr,vr,hd,vl,hu:  2%  3%  1% 15% 19% 14% 19% 11% 15%
[libx264 @ 0x456d120] i8c dc,h,v,p: 44% 29% 15% 12%
[libx264 @ 0x456d120] Weighted P-Frames: Y:4.4% UV:2.2%
[libx264 @ 0x456d120] ref P L0: 56.5% 15.6% 12.3%  3.6%  2.9%  2.6%  2.3%  0.7%  0.6%  0.6%  0.5%  0.5%  0.4%  0.4%  0.4%  0.1%
[libx264 @ 0x456d120] ref B L0: 79.8%  6.6%  6.0%  1.5%  1.5%  1.3%  1.3%  0.3%  0.3%  0.3%  0.3%  0.3%  0.3%  0.2%  0.0%
[libx264 @ 0x456d120] ref B L1: 93.2%  6.8%
[libx264 @ 0x456d120] kb/s:9866.38
